<?xml version="1.0" encoding="UTF-8"?><svg xmlns="http://www.w3.org/2000/svg" xmlns:xlink="http://www.w3.org/1999/xlink" fill-opacity="1" color-rendering="auto" color-interpolation="auto" text-rendering="auto" stroke="black" stroke-linecap="square" width="1224" stroke-miterlimit="10" shape-rendering="auto" stroke-opacity="1" fill="black" stroke-dasharray="none" font-weight="normal" stroke-width="1" height="634" font-family="'Dialog'" font-style="normal" stroke-linejoin="miter" font-size="12px" stroke-dashoffset="0" image-rendering="auto">
  <!--Generated by ySVG 2.5-->
  <defs id="genericDefs"/>
  <g>
    <defs id="defs1">
      <clipPath clipPathUnits="userSpaceOnUse" id="clipPath1">
        <path d="M0 0 L1224 0 L1224 634 L0 634 L0 0 Z"/>
      </clipPath>
      <clipPath clipPathUnits="userSpaceOnUse" id="clipPath2">
        <path d="M93 -226 L1317 -226 L1317 408 L93 408 L93 -226 Z"/>
      </clipPath>
    </defs>
    <g fill="white" text-rendering="geometricPrecision" shape-rendering="geometricPrecision" transform="translate(-93,226)" stroke="white">
      <rect x="93" width="1224" height="634" y="-226" clip-path="url(#clipPath2)" stroke="none"/>
    </g>
    <g fill="silver" text-rendering="geometricPrecision" shape-rendering="geometricPrecision" transform="matrix(1,0,0,1,-93,226)" stroke="silver">
      <rect x="269.2666" width="30" height="30" y="60" clip-path="url(#clipPath2)" stroke="none"/>
    </g>
    <g text-rendering="geometricPrecision" stroke-miterlimit="1.45" stroke-width="3" shape-rendering="geometricPrecision" transform="matrix(1,0,0,1,-93,226)" stroke-linecap="butt">
      <rect fill="none" x="269.2666" width="30" height="30" y="60" clip-path="url(#clipPath2)"/>
      <text x="259.8154" y="107.6016" clip-path="url(#clipPath2)" font-family="sans-serif" stroke="none" stroke-width="1" xml:space="preserve">Partition</text>
    </g>
    <g fill="silver" text-rendering="geometricPrecision" shape-rendering="geometricPrecision" transform="matrix(1,0,0,1,-93,226)" stroke="silver">
      <rect x="514.2666" width="30" height="30" y="60" clip-path="url(#clipPath2)" stroke="none"/>
    </g>
    <g text-rendering="geometricPrecision" stroke-miterlimit="1.45" stroke-width="3" shape-rendering="geometricPrecision" transform="matrix(1,0,0,1,-93,226)" stroke-linecap="butt">
      <rect fill="none" x="514.2666" width="30" height="30" y="60" clip-path="url(#clipPath2)"/>
      <text x="511.2168" y="107.6016" clip-path="url(#clipPath2)" font-family="sans-serif" stroke="none" stroke-width="1" xml:space="preserve">Merge</text>
    </g>
    <g fill="silver" text-rendering="geometricPrecision" shape-rendering="geometricPrecision" transform="matrix(1,0,0,1,-93,226)" stroke="silver">
      <rect x="661" width="30" height="30" y="60" clip-path="url(#clipPath2)" stroke="none"/>
    </g>
    <g text-rendering="geometricPrecision" stroke-miterlimit="1.45" stroke-width="3" shape-rendering="geometricPrecision" transform="matrix(1,0,0,1,-93,226)" stroke-linecap="butt">
      <rect fill="none" x="661" width="30" height="30" y="60" clip-path="url(#clipPath2)"/>
      <text x="697" y="81.4688" clip-path="url(#clipPath2)" font-family="sans-serif" stroke="none" stroke-width="1" xml:space="preserve">Partition</text>
    </g>
    <g fill="silver" text-rendering="geometricPrecision" shape-rendering="geometricPrecision" transform="matrix(1,0,0,1,-93,226)" stroke="silver">
      <rect x="661" width="30" height="30" y="-65" clip-path="url(#clipPath2)" stroke="none"/>
    </g>
    <g text-rendering="geometricPrecision" stroke-miterlimit="1.45" stroke-width="3" shape-rendering="geometricPrecision" transform="matrix(1,0,0,1,-93,226)" stroke-linecap="butt">
      <rect fill="none" x="661" width="30" height="30" y="-65" clip-path="url(#clipPath2)"/>
      <text x="653.1123" y="-7.4648" clip-path="url(#clipPath2)" font-family="sans-serif" stroke="none" stroke-width="1" xml:space="preserve">MapAsync</text>
    </g>
    <g fill="silver" text-rendering="geometricPrecision" shape-rendering="geometricPrecision" transform="matrix(1,0,0,1,-93,226)" stroke="silver">
      <rect x="661" width="30" height="30" y="204" clip-path="url(#clipPath2)" stroke="none"/>
    </g>
    <g text-rendering="geometricPrecision" stroke-miterlimit="1.45" stroke-width="3" shape-rendering="geometricPrecision" transform="matrix(1,0,0,1,-93,226)" stroke-linecap="butt">
      <rect fill="none" x="661" width="30" height="30" y="204" clip-path="url(#clipPath2)"/>
      <text x="664.9902" y="251.6016" clip-path="url(#clipPath2)" font-family="sans-serif" stroke="none" stroke-width="1" xml:space="preserve">Join</text>
    </g>
    <g fill="silver" text-rendering="geometricPrecision" shape-rendering="geometricPrecision" transform="matrix(1,0,0,1,-93,226)" stroke="silver">
      <rect x="967" width="30" height="30" y="-65" clip-path="url(#clipPath2)" stroke="none"/>
    </g>
    <g text-rendering="geometricPrecision" stroke-miterlimit="1.45" stroke-width="3" shape-rendering="geometricPrecision" transform="matrix(1,0,0,1,-93,226)" stroke-linecap="butt">
      <rect fill="none" x="967" width="30" height="30" y="-65" clip-path="url(#clipPath2)"/>
      <text x="965.1689" y="-73.5312" clip-path="url(#clipPath2)" font-family="sans-serif" stroke="none" stroke-width="1" xml:space="preserve">Unzip</text>
    </g>
    <g fill="silver" text-rendering="geometricPrecision" shape-rendering="geometricPrecision" transform="matrix(1,0,0,1,-93,226)" stroke="silver">
      <rect x="1104" width="30" height="30" y="-65" clip-path="url(#clipPath2)" stroke="none"/>
    </g>
    <g text-rendering="geometricPrecision" stroke-miterlimit="1.45" stroke-width="3" shape-rendering="geometricPrecision" transform="matrix(1,0,0,1,-93,226)" stroke-linecap="butt">
      <rect fill="none" x="1104" width="30" height="30" y="-65" clip-path="url(#clipPath2)"/>
      <text x="1097.0479" y="-17.3984" clip-path="url(#clipPath2)" font-family="sans-serif" stroke="none" stroke-width="1" xml:space="preserve">Balance</text>
    </g>
    <g fill="silver" text-rendering="geometricPrecision" shape-rendering="geometricPrecision" transform="matrix(1,0,0,1,-93,226)" stroke="silver">
      <rect x="798" width="30" height="30" y="204" clip-path="url(#clipPath2)" stroke="none"/>
    </g>
    <g text-rendering="geometricPrecision" stroke-miterlimit="1.45" stroke-width="3" shape-rendering="geometricPrecision" transform="matrix(1,0,0,1,-93,226)" stroke-linecap="butt">
      <rect fill="none" x="798" width="30" height="30" y="204" clip-path="url(#clipPath2)"/>
      <text x="783.6123" y="195.4688" clip-path="url(#clipPath2)" font-family="sans-serif" stroke="none" stroke-width="1" xml:space="preserve">MapAsync</text>
    </g>
    <g fill="silver" text-rendering="geometricPrecision" shape-rendering="geometricPrecision" transform="matrix(1,0,0,1,-93,226)" stroke="silver">
      <rect x="967" width="30" height="30" y="204" clip-path="url(#clipPath2)" stroke="none"/>
    </g>
    <g text-rendering="geometricPrecision" stroke-miterlimit="1.45" stroke-width="3" shape-rendering="geometricPrecision" transform="matrix(1,0,0,1,-93,226)" stroke-linecap="butt">
      <rect fill="none" x="967" width="30" height="30" y="204" clip-path="url(#clipPath2)"/>
      <text x="965.1689" y="251.6016" clip-path="url(#clipPath2)" font-family="sans-serif" stroke="none" stroke-width="1" xml:space="preserve">Unzip</text>
    </g>
    <g fill="silver" text-rendering="geometricPrecision" shape-rendering="geometricPrecision" transform="matrix(1,0,0,1,-93,226)" stroke="silver">
      <rect x="967" width="30" height="30" y="60" clip-path="url(#clipPath2)" stroke="none"/>
    </g>
    <g text-rendering="geometricPrecision" stroke-miterlimit="1.45" stroke-width="3" shape-rendering="geometricPrecision" transform="matrix(1,0,0,1,-93,226)" stroke-linecap="butt">
      <rect fill="none" x="967" width="30" height="30" y="60" clip-path="url(#clipPath2)"/>
      <text x="917.4502" y="81.4688" clip-path="url(#clipPath2)" font-family="sans-serif" stroke="none" stroke-width="1" xml:space="preserve">Merge</text>
    </g>
    <g fill="silver" text-rendering="geometricPrecision" shape-rendering="geometricPrecision" transform="matrix(1,0,0,1,-93,226)" stroke="silver">
      <rect x="1113" width="30" height="30" y="204" clip-path="url(#clipPath2)" stroke="none"/>
    </g>
    <g text-rendering="geometricPrecision" stroke-miterlimit="1.45" stroke-width="3" shape-rendering="geometricPrecision" transform="matrix(1,0,0,1,-93,226)" stroke-linecap="butt">
      <rect fill="none" x="1113" width="30" height="30" y="204" clip-path="url(#clipPath2)"/>
      <text x="1106.0479" y="251.6016" clip-path="url(#clipPath2)" font-family="sans-serif" stroke="none" stroke-width="1" xml:space="preserve">Balance</text>
      <path fill="none" d="M544.2666 75 L653 75" stroke-width="1" clip-path="url(#clipPath2)"/>
      <path d="M661 75 L649 70 L652 75 L649 80 Z" stroke-width="1" clip-path="url(#clipPath2)" stroke="none"/>
      <text x="583.8364" y="68.4688" clip-path="url(#clipPath2)" font-family="sans-serif" stroke="none" stroke-width="1" xml:space="preserve">Packet</text>
      <path fill="none" d="M676 60 L676 -27" stroke-width="1" clip-path="url(#clipPath2)"/>
      <path d="M676 -35 L671 -23 L676 -26 L681 -23 Z" stroke-width="1" clip-path="url(#clipPath2)" stroke="none"/>
      <text x="680" y="17.0352" clip-path="url(#clipPath2)" font-family="sans-serif" stroke="none" stroke-width="1" xml:space="preserve">ICMPPacket</text>
      <path fill="none" d="M676 90 L676 196" stroke-width="1" clip-path="url(#clipPath2)"/>
      <path d="M676 204 L681 192 L676 195 L671 192 Z" stroke-width="1" clip-path="url(#clipPath2)" stroke="none"/>
      <text x="680" y="151.5352" clip-path="url(#clipPath2)" font-family="sans-serif" stroke="none" stroke-width="1" xml:space="preserve">DNSPacket</text>
      <path fill="none" d="M691 -50 L959 -50" stroke-width="1" clip-path="url(#clipPath2)"/>
      <path d="M967 -50 L955 -55 L958 -50 L955 -45 Z" stroke-width="1" clip-path="url(#clipPath2)" stroke="none"/>
      <text x="785.5439" y="-56.5312" clip-path="url(#clipPath2)" font-family="sans-serif" stroke="none" stroke-width="1" xml:space="preserve">&lt;Row, Metric&gt;</text>
      <path fill="none" d="M997 -50 L1096 -50" stroke-width="1" clip-path="url(#clipPath2)"/>
      <path d="M1104 -50 L1092 -55 L1095 -50 L1092 -45 Z" stroke-width="1" clip-path="url(#clipPath2)" stroke="none"/>
      <text x="1038.3975" y="-56.5312" clip-path="url(#clipPath2)" font-family="sans-serif" stroke="none" stroke-width="1" xml:space="preserve">Row</text>
      <path fill="none" d="M691 219 L790 219" stroke-width="1" clip-path="url(#clipPath2)"/>
      <path d="M798 219 L786 214 L789 219 L786 224 Z" stroke-width="1" clip-path="url(#clipPath2)" stroke="none"/>
      <path fill="none" d="M828 219 L959 219" stroke-width="1" clip-path="url(#clipPath2)"/>
      <path d="M967 219 L955 214 L958 219 L955 224 Z" stroke-width="1" clip-path="url(#clipPath2)" stroke="none"/>
      <text x="854.0439" y="212.4688" clip-path="url(#clipPath2)" font-family="sans-serif" stroke="none" stroke-width="1" xml:space="preserve">&lt;Row, Metric&gt;</text>
      <path fill="none" d="M982 204 L982 98" stroke-width="1" clip-path="url(#clipPath2)"/>
      <path d="M982 90 L977 102 L982 99 L987 102 Z" stroke-width="1" clip-path="url(#clipPath2)" stroke="none"/>
      <text x="986" y="151.5352" clip-path="url(#clipPath2)" font-family="sans-serif" stroke="none" stroke-width="1" xml:space="preserve">Metric</text>
      <path fill="none" d="M982 -35 L982 52" stroke-width="1" clip-path="url(#clipPath2)"/>
      <path d="M982 60 L987 48 L982 51 L977 48 Z" stroke-width="1" clip-path="url(#clipPath2)" stroke="none"/>
      <text x="986" y="17.0352" clip-path="url(#clipPath2)" font-family="sans-serif" stroke="none" stroke-width="1" xml:space="preserve">Metric</text>
      <path fill="none" d="M997 219 L1105 219" stroke-width="1" clip-path="url(#clipPath2)"/>
      <path d="M1113 219 L1101 214 L1104 219 L1101 224 Z" stroke-width="1" clip-path="url(#clipPath2)" stroke="none"/>
      <text x="1042.8975" y="212.4688" clip-path="url(#clipPath2)" font-family="sans-serif" stroke="none" stroke-width="1" xml:space="preserve">Row</text>
    </g>
    <g fill="rgb(245,245,245)" text-rendering="geometricPrecision" shape-rendering="geometricPrecision" transform="matrix(1,0,0,1,-93,226)" stroke="rgb(245,245,245)">
      <rect x="682.1797" y="288.334" clip-path="url(#clipPath2)" width="261.6406" rx="4" ry="4" height="103.7988" stroke="none"/>
      <rect x="682.1797" y="288.334" clip-path="url(#clipPath2)" fill="rgb(235,235,235)" width="261.6406" height="21.666" stroke="none"/>
    </g>
    <g font-size="15px" stroke-linecap="butt" transform="matrix(1,0,0,1,-93,226)" text-rendering="geometricPrecision" font-family="sans-serif" shape-rendering="geometricPrecision" stroke-miterlimit="1.45">
      <text x="898.9956" xml:space="preserve" y="304.8359" clip-path="url(#clipPath2)" stroke="none">Async</text>
      <rect x="682.1797" y="288.334" clip-path="url(#clipPath2)" fill="none" width="261.6406" stroke-dasharray="6,2" rx="4" ry="4" height="103.7988"/>
    </g>
    <g fill="silver" text-rendering="geometricPrecision" shape-rendering="geometricPrecision" transform="matrix(1,0,0,1,-93,226)" stroke="silver">
      <rect x="716.5" width="30" height="30" y="325" clip-path="url(#clipPath2)" stroke="none"/>
    </g>
    <g text-rendering="geometricPrecision" stroke-miterlimit="1.45" stroke-width="3" shape-rendering="geometricPrecision" transform="matrix(1,0,0,1,-93,226)" stroke-linecap="butt">
      <rect fill="none" x="716.5" width="30" height="30" y="325" clip-path="url(#clipPath2)"/>
      <text x="699.1797" y="372.6016" clip-path="url(#clipPath2)" font-family="sans-serif" stroke="none" stroke-width="1" xml:space="preserve">RowBuilder</text>
    </g>
    <g fill="silver" text-rendering="geometricPrecision" shape-rendering="geometricPrecision" transform="matrix(1,0,0,1,-93,226)" stroke="silver">
      <rect x="798" width="30" height="30" y="325" clip-path="url(#clipPath2)" stroke="none"/>
    </g>
    <g text-rendering="geometricPrecision" stroke-miterlimit="1.45" stroke-width="3" shape-rendering="geometricPrecision" transform="matrix(1,0,0,1,-93,226)" stroke-linecap="butt">
      <rect fill="none" x="798" width="30" height="30" y="325" clip-path="url(#clipPath2)"/>
      <text x="780.6797" y="372.6016" clip-path="url(#clipPath2)" font-family="sans-serif" stroke="none" stroke-width="1" xml:space="preserve">RowBuilder</text>
    </g>
    <g fill="silver" text-rendering="geometricPrecision" shape-rendering="geometricPrecision" transform="matrix(1,0,0,1,-93,226)" stroke="silver">
      <rect x="879.5" width="30" height="30" y="325" clip-path="url(#clipPath2)" stroke="none"/>
    </g>
    <g text-rendering="geometricPrecision" stroke-miterlimit="1.45" stroke-width="3" shape-rendering="geometricPrecision" transform="matrix(1,0,0,1,-93,226)" stroke-linecap="butt">
      <rect fill="none" x="879.5" width="30" height="30" y="325" clip-path="url(#clipPath2)"/>
      <text x="862.1797" y="372.6016" clip-path="url(#clipPath2)" font-family="sans-serif" stroke="none" stroke-width="1" xml:space="preserve">RowBuilder</text>
      <path fill="none" d="M802.8967 234 L746.0725 318.3648" stroke-width="1" clip-path="url(#clipPath2)"/>
      <path d="M741.6033 325 L752.4542 317.8404 L746.6312 317.5354 L744.1601 312.2539 Z" stroke-width="1" clip-path="url(#clipPath2)" stroke="none"/>
      <path fill="none" d="M813 234 L813 317" stroke-width="1" clip-path="url(#clipPath2)"/>
      <path d="M813 325 L818 313 L813 316 L808 313 Z" stroke-width="1" clip-path="url(#clipPath2)" stroke="none"/>
      <path fill="none" d="M823.1033 234 L879.9275 318.3648" stroke-width="1" clip-path="url(#clipPath2)"/>
      <path d="M884.3967 325 L881.8399 312.2539 L879.3688 317.5354 L873.5458 317.8404 Z" stroke-width="1" clip-path="url(#clipPath2)" stroke="none"/>
    </g>
    <g fill="rgb(245,245,245)" text-rendering="geometricPrecision" shape-rendering="geometricPrecision" transform="matrix(1,0,0,1,-93,226)" stroke="rgb(245,245,245)">
      <rect x="545.1797" y="-210.666" clip-path="url(#clipPath2)" width="261.6406" rx="4" ry="4" height="121.7324" stroke="none"/>
      <rect x="545.1797" y="-210.666" clip-path="url(#clipPath2)" fill="rgb(235,235,235)" width="261.6406" height="21.666" stroke="none"/>
    </g>
    <g font-size="15px" stroke-linecap="butt" transform="matrix(1,0,0,1,-93,226)" text-rendering="geometricPrecision" font-family="sans-serif" shape-rendering="geometricPrecision" stroke-miterlimit="1.45">
      <text x="761.9956" xml:space="preserve" y="-194.1641" clip-path="url(#clipPath2)" stroke="none">Async</text>
      <rect x="545.1797" y="-210.666" clip-path="url(#clipPath2)" fill="none" width="261.6406" stroke-dasharray="6,2" rx="4" ry="4" height="121.7324"/>
    </g>
    <g fill="silver" text-rendering="geometricPrecision" shape-rendering="geometricPrecision" transform="matrix(1,0,0,1,-93,226)" stroke="silver">
      <rect x="579.5" width="30" height="30" y="-174" clip-path="url(#clipPath2)" stroke="none"/>
    </g>
    <g text-rendering="geometricPrecision" stroke-miterlimit="1.45" stroke-width="3" shape-rendering="geometricPrecision" transform="matrix(1,0,0,1,-93,226)" stroke-linecap="butt">
      <rect fill="none" x="579.5" width="30" height="30" y="-174" clip-path="url(#clipPath2)"/>
      <text x="562.1797" y="-108.4648" clip-path="url(#clipPath2)" font-family="sans-serif" stroke="none" stroke-width="1" xml:space="preserve">RowBuilder</text>
    </g>
    <g fill="silver" text-rendering="geometricPrecision" shape-rendering="geometricPrecision" transform="matrix(1,0,0,1,-93,226)" stroke="silver">
      <rect x="661" width="30" height="30" y="-174" clip-path="url(#clipPath2)" stroke="none"/>
    </g>
    <g text-rendering="geometricPrecision" stroke-miterlimit="1.45" stroke-width="3" shape-rendering="geometricPrecision" transform="matrix(1,0,0,1,-93,226)" stroke-linecap="butt">
      <rect fill="none" x="661" width="30" height="30" y="-174" clip-path="url(#clipPath2)"/>
      <text x="643.6797" y="-108.4648" clip-path="url(#clipPath2)" font-family="sans-serif" stroke="none" stroke-width="1" xml:space="preserve">RowBuilder</text>
    </g>
    <g fill="silver" text-rendering="geometricPrecision" shape-rendering="geometricPrecision" transform="matrix(1,0,0,1,-93,226)" stroke="silver">
      <rect x="742.5" width="30" height="30" y="-174" clip-path="url(#clipPath2)" stroke="none"/>
    </g>
    <g text-rendering="geometricPrecision" stroke-miterlimit="1.45" stroke-width="3" shape-rendering="geometricPrecision" transform="matrix(1,0,0,1,-93,226)" stroke-linecap="butt">
      <rect fill="none" x="742.5" width="30" height="30" y="-174" clip-path="url(#clipPath2)"/>
      <text x="725.1797" y="-110.4648" clip-path="url(#clipPath2)" font-family="sans-serif" stroke="none" stroke-width="1" xml:space="preserve">RowBuilder</text>
      <path fill="none" d="M664.7844 -65 L610.5062 -137.593" stroke-width="1" clip-path="url(#clipPath2)"/>
      <path d="M605.7156 -144 L608.897 -131.3953 L611.105 -136.7921 L616.9059 -137.3835 Z" stroke-width="1" clip-path="url(#clipPath2)" stroke="none"/>
      <path fill="none" d="M676 -65 L676 -136" stroke-width="1" clip-path="url(#clipPath2)"/>
      <path d="M676 -144 L671 -132 L676 -135 L681 -132 Z" stroke-width="1" clip-path="url(#clipPath2)" stroke="none"/>
      <path fill="none" d="M687.2156 -65 L741.4938 -137.593" stroke-width="1" clip-path="url(#clipPath2)"/>
      <path d="M746.2844 -144 L735.0941 -137.3835 L740.895 -136.7921 L743.103 -131.3953 Z" stroke-width="1" clip-path="url(#clipPath2)" stroke="none"/>
    </g>
    <g fill="rgb(245,245,245)" text-rendering="geometricPrecision" shape-rendering="geometricPrecision" transform="matrix(1,0,0,1,-93,226)" stroke="rgb(245,245,245)">
      <rect x="365.0967" y="-48.666" clip-path="url(#clipPath2)" width="82.3398" rx="4" ry="4" height="247.7988" stroke="none"/>
      <rect x="365.0967" y="-48.666" clip-path="url(#clipPath2)" fill="rgb(235,235,235)" width="82.3398" height="21.666" stroke="none"/>
    </g>
    <g font-size="15px" stroke-linecap="butt" transform="matrix(1,0,0,1,-93,226)" text-rendering="geometricPrecision" font-family="sans-serif" shape-rendering="geometricPrecision" stroke-miterlimit="1.45">
      <text x="402.6118" xml:space="preserve" y="-32.1641" clip-path="url(#clipPath2)" stroke="none">Async</text>
      <rect x="365.0967" y="-48.666" clip-path="url(#clipPath2)" fill="none" width="82.3398" stroke-dasharray="6,2" rx="4" ry="4" height="247.7988"/>
    </g>
    <g fill="silver" text-rendering="geometricPrecision" shape-rendering="geometricPrecision" transform="matrix(1,0,0,1,-93,226)" stroke="silver">
      <rect x="391.2666" width="30" height="30" y="-12" clip-path="url(#clipPath2)" stroke="none"/>
    </g>
    <g text-rendering="geometricPrecision" stroke-miterlimit="1.45" stroke-width="3" shape-rendering="geometricPrecision" transform="matrix(1,0,0,1,-93,226)" stroke-linecap="butt">
      <rect fill="none" x="391.2666" width="30" height="30" y="-12" clip-path="url(#clipPath2)"/>
      <text x="382.0967" y="35.6016" clip-path="url(#clipPath2)" font-family="sans-serif" stroke="none" stroke-width="1" xml:space="preserve">Decoder</text>
    </g>
    <g fill="silver" text-rendering="geometricPrecision" shape-rendering="geometricPrecision" transform="matrix(1,0,0,1,-93,226)" stroke="silver">
      <rect x="391.2666" width="30" height="30" y="60" clip-path="url(#clipPath2)" stroke="none"/>
    </g>
    <g text-rendering="geometricPrecision" stroke-miterlimit="1.45" stroke-width="3" shape-rendering="geometricPrecision" transform="matrix(1,0,0,1,-93,226)" stroke-linecap="butt">
      <rect fill="none" x="391.2666" width="30" height="30" y="60" clip-path="url(#clipPath2)"/>
      <text x="382.0967" y="107.6016" clip-path="url(#clipPath2)" font-family="sans-serif" stroke="none" stroke-width="1" xml:space="preserve">Decoder</text>
    </g>
    <g fill="silver" text-rendering="geometricPrecision" shape-rendering="geometricPrecision" transform="matrix(1,0,0,1,-93,226)" stroke="silver">
      <rect x="391.2666" width="30" height="30" y="132" clip-path="url(#clipPath2)" stroke="none"/>
    </g>
    <g text-rendering="geometricPrecision" stroke-miterlimit="1.45" stroke-width="3" shape-rendering="geometricPrecision" transform="matrix(1,0,0,1,-93,226)" stroke-linecap="butt">
      <rect fill="none" x="391.2666" width="30" height="30" y="132" clip-path="url(#clipPath2)"/>
      <text x="382.0967" y="179.6016" clip-path="url(#clipPath2)" font-family="sans-serif" stroke="none" stroke-width="1" xml:space="preserve">Decoder</text>
      <path fill="none" d="M299.2666 66.1475 L384.377 15.9185" stroke-width="1" clip-path="url(#clipPath2)"/>
      <path d="M391.2666 11.8525 L378.3908 13.6455 L383.5157 16.4267 L383.4734 22.2575 Z" stroke-width="1" clip-path="url(#clipPath2)" stroke="none"/>
      <path fill="none" d="M421.2666 11.7805 L507.3625 62.1781" stroke-width="1" clip-path="url(#clipPath2)"/>
      <path d="M514.2666 66.2195 L506.4363 55.8423 L506.4995 61.6729 L501.3845 64.4724 Z" stroke-width="1" clip-path="url(#clipPath2)" stroke="none"/>
      <path fill="none" d="M299.2666 75 L383.2666 75" stroke-width="1" clip-path="url(#clipPath2)"/>
      <path d="M391.2666 75 L379.2666 70 L382.2666 75 L379.2666 80 Z" stroke-width="1" clip-path="url(#clipPath2)" stroke="none"/>
      <path fill="none" d="M421.2666 75 L506.2666 75" stroke-width="1" clip-path="url(#clipPath2)"/>
      <path d="M514.2666 75 L502.2666 70 L505.2666 75 L502.2666 80 Z" stroke-width="1" clip-path="url(#clipPath2)" stroke="none"/>
      <path fill="none" d="M299.2666 83.8525 L384.377 134.0815" stroke-width="1" clip-path="url(#clipPath2)"/>
      <path d="M391.2666 138.1475 L383.4734 127.7425 L383.5157 133.5733 L378.3908 136.3545 Z" stroke-width="1" clip-path="url(#clipPath2)" stroke="none"/>
      <path fill="none" d="M421.2666 138.2195 L507.3625 87.8219" stroke-width="1" clip-path="url(#clipPath2)"/>
      <path d="M514.2666 83.7805 L501.3845 85.5276 L506.4995 88.3271 L506.4363 94.1577 Z" stroke-width="1" clip-path="url(#clipPath2)" stroke="none"/>
    </g>
    <g fill="rgb(245,245,245)" text-rendering="geometricPrecision" shape-rendering="geometricPrecision" transform="matrix(1,0,0,1,-93,226)" stroke="rgb(245,245,245)">
      <rect x="1194.7334" y="-151.666" clip-path="url(#clipPath2)" width="106.5332" rx="4" ry="4" height="483.7988" stroke="none"/>
      <rect x="1194.7334" y="-151.666" clip-path="url(#clipPath2)" fill="rgb(235,235,235)" width="106.5332" height="21.666" stroke="none"/>
    </g>
    <g font-size="15px" stroke-linecap="butt" transform="matrix(1,0,0,1,-93,226)" text-rendering="geometricPrecision" font-family="sans-serif" shape-rendering="geometricPrecision" stroke-miterlimit="1.45">
      <text x="1256.4419" xml:space="preserve" y="-135.1641" clip-path="url(#clipPath2)" stroke="none">Async</text>
      <rect x="1194.7334" y="-151.666" clip-path="url(#clipPath2)" fill="none" width="106.5332" stroke-dasharray="6,2" rx="4" ry="4" height="483.7988"/>
    </g>
    <g fill="silver" text-rendering="geometricPrecision" shape-rendering="geometricPrecision" transform="matrix(1,0,0,1,-93,226)" stroke="silver">
      <rect x="1233" width="30" height="30" y="-115" clip-path="url(#clipPath2)" stroke="none"/>
    </g>
    <g text-rendering="geometricPrecision" stroke-miterlimit="1.45" stroke-width="3" shape-rendering="geometricPrecision" transform="matrix(1,0,0,1,-93,226)" stroke-linecap="butt">
      <rect fill="none" x="1233" width="30" height="30" y="-115" clip-path="url(#clipPath2)"/>
      <text x="1211.7334" y="-67.3984" clip-path="url(#clipPath2)" font-family="sans-serif" stroke="none" stroke-width="1" xml:space="preserve">Parquet Sink</text>
    </g>
    <g fill="silver" text-rendering="geometricPrecision" shape-rendering="geometricPrecision" transform="matrix(1,0,0,1,-93,226)" stroke="silver">
      <rect x="1233" width="30" height="30" y="-35" clip-path="url(#clipPath2)" stroke="none"/>
    </g>
    <g text-rendering="geometricPrecision" stroke-miterlimit="1.45" stroke-width="3" shape-rendering="geometricPrecision" transform="matrix(1,0,0,1,-93,226)" stroke-linecap="butt">
      <rect fill="none" x="1233" width="30" height="30" y="-35" clip-path="url(#clipPath2)"/>
      <text x="1211.7334" y="12.6016" clip-path="url(#clipPath2)" font-family="sans-serif" stroke="none" stroke-width="1" xml:space="preserve">Parquet Sink</text>
      <path fill="none" d="M1134 -55.814 L1225.5408 -91.2949" stroke-width="1" clip-path="url(#clipPath2)"/>
      <path d="M1233 -94.1861 L1220.004 -94.5113 L1224.6083 -90.9335 L1223.618 -85.1872 Z" stroke-width="1" clip-path="url(#clipPath2)" stroke="none"/>
      <path fill="none" d="M1134 -46.5116 L1225.2079 -25.3005" stroke-width="1" clip-path="url(#clipPath2)"/>
      <path d="M1233 -23.4884 L1222.4445 -31.0766 L1224.2339 -25.527 L1220.1793 -21.3365 Z" stroke-width="1" clip-path="url(#clipPath2)" stroke="none"/>
    </g>
    <g fill="rgb(245,245,245)" text-rendering="geometricPrecision" shape-rendering="geometricPrecision" transform="matrix(1,0,0,1,-93,226)" stroke="rgb(245,245,245)">
      <rect x="108.9326" y="23.334" clip-path="url(#clipPath2)" width="106.668" rx="4" ry="4" height="103.7988" stroke="none"/>
      <rect x="108.9326" y="23.334" clip-path="url(#clipPath2)" fill="rgb(235,235,235)" width="106.668" height="21.666" stroke="none"/>
    </g>
    <g font-size="15px" stroke-linecap="butt" transform="matrix(1,0,0,1,-93,226)" text-rendering="geometricPrecision" font-family="sans-serif" shape-rendering="geometricPrecision" stroke-miterlimit="1.45">
      <text x="170.7759" xml:space="preserve" y="39.8359" clip-path="url(#clipPath2)" stroke="none">Async</text>
      <rect x="108.9326" y="23.334" clip-path="url(#clipPath2)" fill="none" width="106.668" stroke-dasharray="6,2" rx="4" ry="4" height="103.7988"/>
    </g>
    <g fill="silver" text-rendering="geometricPrecision" shape-rendering="geometricPrecision" transform="matrix(1,0,0,1,-93,226)" stroke="silver">
      <rect x="147.2666" width="30" height="30" y="60" clip-path="url(#clipPath2)" stroke="none"/>
    </g>
    <g text-rendering="geometricPrecision" stroke-miterlimit="1.45" stroke-width="2" shape-rendering="geometricPrecision" transform="matrix(1,0,0,1,-93,226)" stroke-linecap="butt">
      <rect fill="none" x="147.2666" width="30" height="30" y="60" clip-path="url(#clipPath2)"/>
      <text x="125.9326" y="107.6016" clip-path="url(#clipPath2)" font-family="sans-serif" stroke="none" stroke-width="1" xml:space="preserve">PCAP Source</text>
    </g>
    <g fill="silver" text-rendering="geometricPrecision" shape-rendering="geometricPrecision" transform="matrix(1,0,0,1,-93,226)" stroke="silver">
      <rect x="1233" width="30" height="30" y="60" clip-path="url(#clipPath2)" stroke="none"/>
    </g>
    <g text-rendering="geometricPrecision" stroke-miterlimit="1.45" stroke-width="3" shape-rendering="geometricPrecision" transform="matrix(1,0,0,1,-93,226)" stroke-linecap="butt">
      <rect fill="none" x="1233" width="30" height="30" y="60" clip-path="url(#clipPath2)"/>
      <text x="1208.9795" y="107.6016" clip-path="url(#clipPath2)" font-family="sans-serif" stroke="none" stroke-width="1" xml:space="preserve">Graphite Sink</text>
    </g>
    <g fill="silver" text-rendering="geometricPrecision" shape-rendering="geometricPrecision" transform="matrix(1,0,0,1,-93,226)" stroke="silver">
      <rect x="1233" width="30" height="30" y="154" clip-path="url(#clipPath2)" stroke="none"/>
    </g>
    <g text-rendering="geometricPrecision" stroke-miterlimit="1.45" stroke-width="3" shape-rendering="geometricPrecision" transform="matrix(1,0,0,1,-93,226)" stroke-linecap="butt">
      <rect fill="none" x="1233" width="30" height="30" y="154" clip-path="url(#clipPath2)"/>
      <text x="1211.7334" y="201.6016" clip-path="url(#clipPath2)" font-family="sans-serif" stroke="none" stroke-width="1" xml:space="preserve">Parquet Sink</text>
    </g>
    <g fill="silver" text-rendering="geometricPrecision" shape-rendering="geometricPrecision" transform="matrix(1,0,0,1,-93,226)" stroke="silver">
      <rect x="1233" width="30" height="30" y="234" clip-path="url(#clipPath2)" stroke="none"/>
    </g>
    <g text-rendering="geometricPrecision" stroke-miterlimit="1.45" stroke-width="3" shape-rendering="geometricPrecision" transform="matrix(1,0,0,1,-93,226)" stroke-linecap="butt">
      <rect fill="none" x="1233" width="30" height="30" y="234" clip-path="url(#clipPath2)"/>
      <text x="1211.7334" y="281.6016" clip-path="url(#clipPath2)" font-family="sans-serif" stroke="none" stroke-width="1" xml:space="preserve">Parquet Sink</text>
      <path fill="none" d="M177.2666 75 L261.2666 75" stroke-width="1" clip-path="url(#clipPath2)"/>
      <path d="M269.2666 75 L257.2666 70 L260.2666 75 L257.2666 80 Z" stroke-width="1" clip-path="url(#clipPath2)" stroke="none"/>
      <text x="206.8662" y="69.4688" clip-path="url(#clipPath2)" font-family="sans-serif" stroke="none" stroke-width="1" xml:space="preserve">byte[]</text>
      <path fill="none" d="M997 75 L1225 75" stroke-width="1" clip-path="url(#clipPath2)"/>
      <path d="M1233 75 L1221 70 L1224 75 L1221 80 Z" stroke-width="1" clip-path="url(#clipPath2)" stroke="none"/>
      <path fill="none" d="M1143 212.75 L1225.6154 178.3269" stroke-width="1" clip-path="url(#clipPath2)"/>
      <path d="M1233 175.25 L1220 175.25 L1224.6923 178.7115 L1223.8462 184.4808 Z" stroke-width="1" clip-path="url(#clipPath2)" stroke="none"/>
      <path fill="none" d="M1143 222.75 L1225.2389 243.3097" stroke-width="1" clip-path="url(#clipPath2)"/>
      <path d="M1233 245.25 L1222.5709 237.4888 L1224.2687 243.0672 L1220.1456 247.1903 Z" stroke-width="1" clip-path="url(#clipPath2)" stroke="none"/>
    </g>
  </g>
</svg>
